<mxfile host="app.diagrams.net" modified="2023-12-13T14:13:21.324Z" agent="Mozilla/5.0 (Windows NT 10.0; Win64; x64) AppleWebKit/537.36 (KHTML, like Gecko) Chrome/120.0.0.0 Safari/537.36 Edg/120.0.0.0" etag="ewFNR-Fq797TZ82Us4t7" version="22.1.8" type="github">
  <diagram id="C5RBs43oDa-KdzZeNtuy" name="Page-1">
    <mxGraphModel dx="884" dy="392" grid="0" gridSize="10" guides="1" tooltips="1" connect="1" arrows="1" fold="1" page="1" pageScale="1" pageWidth="827" pageHeight="1169" background="#000000" math="0" shadow="0">
      <root>
        <mxCell id="WIyWlLk6GJQsqaUBKTNV-0" />
        <mxCell id="WIyWlLk6GJQsqaUBKTNV-1" parent="WIyWlLk6GJQsqaUBKTNV-0" />
        <mxCell id="v8HHP5DSAiD64qSdVQnQ-0" value="&lt;u&gt;店鋪管理員&lt;/u&gt;" style="shape=umlActor;verticalLabelPosition=bottom;verticalAlign=top;html=1;strokeColor=#FFFFFF;fontColor=#FFFFFF;fillColor=#182E3E;labelBackgroundColor=none;" vertex="1" parent="WIyWlLk6GJQsqaUBKTNV-1">
          <mxGeometry x="143" y="114" width="30" height="52" as="geometry" />
        </mxCell>
        <mxCell id="v8HHP5DSAiD64qSdVQnQ-6" value="&lt;u&gt;店鋪管理&lt;/u&gt;" style="rounded=0;whiteSpace=wrap;html=1;strokeColor=#FFFFFF;fontColor=#FFFFFF;fillColor=#182E3E;labelBackgroundColor=none;" vertex="1" parent="WIyWlLk6GJQsqaUBKTNV-1">
          <mxGeometry x="252" y="146" width="84" height="37" as="geometry" />
        </mxCell>
        <mxCell id="v8HHP5DSAiD64qSdVQnQ-9" value="&lt;u&gt;監察檔案&lt;/u&gt;" style="rounded=0;whiteSpace=wrap;html=1;strokeColor=#FFFFFF;fontColor=#FFFFFF;fillColor=#182E3E;labelBackgroundColor=none;" vertex="1" parent="WIyWlLk6GJQsqaUBKTNV-1">
          <mxGeometry x="578" y="146" width="84" height="37" as="geometry" />
        </mxCell>
        <mxCell id="v8HHP5DSAiD64qSdVQnQ-10" value="&lt;u&gt;監察控制&lt;/u&gt;" style="rounded=0;whiteSpace=wrap;html=1;strokeColor=#FFFFFF;fontColor=#FFFFFF;fillColor=#182E3E;labelBackgroundColor=none;" vertex="1" parent="WIyWlLk6GJQsqaUBKTNV-1">
          <mxGeometry x="415" y="146" width="84" height="37" as="geometry" />
        </mxCell>
        <mxCell id="v8HHP5DSAiD64qSdVQnQ-12" value="" style="line;strokeWidth=1;direction=south;html=1;strokeColor=#FFFFFF;fontColor=#FFFFFF;fillColor=#182E3E;dashed=1;labelBackgroundColor=none;" vertex="1" parent="WIyWlLk6GJQsqaUBKTNV-1">
          <mxGeometry x="153" y="202" width="10" height="238" as="geometry" />
        </mxCell>
        <mxCell id="v8HHP5DSAiD64qSdVQnQ-13" value="" style="line;strokeWidth=1;direction=south;html=1;strokeColor=#FFFFFF;fontColor=#FFFFFF;fillColor=#182E3E;dashed=1;labelBackgroundColor=none;" vertex="1" parent="WIyWlLk6GJQsqaUBKTNV-1">
          <mxGeometry x="452" y="202" width="10" height="238" as="geometry" />
        </mxCell>
        <mxCell id="v8HHP5DSAiD64qSdVQnQ-14" value="" style="line;strokeWidth=1;direction=south;html=1;strokeColor=#FFFFFF;fontColor=#FFFFFF;fillColor=#182E3E;dashed=1;labelBackgroundColor=none;" vertex="1" parent="WIyWlLk6GJQsqaUBKTNV-1">
          <mxGeometry x="289" y="202" width="10" height="238" as="geometry" />
        </mxCell>
        <mxCell id="v8HHP5DSAiD64qSdVQnQ-15" value="" style="line;strokeWidth=1;direction=south;html=1;strokeColor=#FFFFFF;fontColor=#FFFFFF;fillColor=#182E3E;dashed=1;labelBackgroundColor=none;" vertex="1" parent="WIyWlLk6GJQsqaUBKTNV-1">
          <mxGeometry x="615" y="202" width="10" height="238" as="geometry" />
        </mxCell>
        <mxCell id="v8HHP5DSAiD64qSdVQnQ-24" value="" style="edgeStyle=orthogonalEdgeStyle;rounded=0;orthogonalLoop=1;jettySize=auto;html=1;curved=0;strokeColor=#23445D;labelBackgroundColor=none;fontColor=default;" edge="1" parent="WIyWlLk6GJQsqaUBKTNV-1">
          <mxGeometry relative="1" as="geometry">
            <mxPoint x="163" y="222" as="sourcePoint" />
            <mxPoint x="289" y="222" as="targetPoint" />
          </mxGeometry>
        </mxCell>
        <mxCell id="v8HHP5DSAiD64qSdVQnQ-20" value="" style="html=1;points=[[0,0,0,0,5],[0,1,0,0,-5],[1,0,0,0,5],[1,1,0,0,-5]];perimeter=orthogonalPerimeter;outlineConnect=0;targetShapes=umlLifeline;portConstraint=eastwest;newEdgeStyle={&quot;curved&quot;:0,&quot;rounded&quot;:0};strokeColor=#FFFFFF;fontColor=#FFFFFF;fillColor=#182E3E;labelBackgroundColor=none;" vertex="1" parent="WIyWlLk6GJQsqaUBKTNV-1">
          <mxGeometry x="153" y="222" width="10" height="32" as="geometry" />
        </mxCell>
        <mxCell id="v8HHP5DSAiD64qSdVQnQ-23" value="" style="html=1;points=[[0,0,0,0,5],[0,1,0,0,-5],[1,0,0,0,5],[1,1,0,0,-5]];perimeter=orthogonalPerimeter;outlineConnect=0;targetShapes=umlLifeline;portConstraint=eastwest;newEdgeStyle={&quot;curved&quot;:0,&quot;rounded&quot;:0};strokeColor=#FFFFFF;fontColor=#FFFFFF;fillColor=#182E3E;labelBackgroundColor=none;" vertex="1" parent="WIyWlLk6GJQsqaUBKTNV-1">
          <mxGeometry x="289" y="222" width="10" height="32" as="geometry" />
        </mxCell>
        <mxCell id="v8HHP5DSAiD64qSdVQnQ-25" value="1:登錄" style="text;html=1;align=center;verticalAlign=middle;resizable=0;points=[];autosize=1;strokeColor=none;fillColor=none;fontColor=#FFFFFF;labelBackgroundColor=none;" vertex="1" parent="WIyWlLk6GJQsqaUBKTNV-1">
          <mxGeometry x="200" y="196" width="52" height="26" as="geometry" />
        </mxCell>
        <mxCell id="v8HHP5DSAiD64qSdVQnQ-27" value="" style="html=1;points=[[0,0,0,0,5],[0,1,0,0,-5],[1,0,0,0,5],[1,1,0,0,-5]];perimeter=orthogonalPerimeter;outlineConnect=0;targetShapes=umlLifeline;portConstraint=eastwest;newEdgeStyle={&quot;curved&quot;:0,&quot;rounded&quot;:0};strokeColor=#FFFFFF;fontColor=#FFFFFF;fillColor=#182E3E;labelBackgroundColor=none;" vertex="1" parent="WIyWlLk6GJQsqaUBKTNV-1">
          <mxGeometry x="289" y="277" width="10" height="32" as="geometry" />
        </mxCell>
        <mxCell id="v8HHP5DSAiD64qSdVQnQ-29" value="" style="html=1;points=[[0,0,0,0,5],[0,1,0,0,-5],[1,0,0,0,5],[1,1,0,0,-5]];perimeter=orthogonalPerimeter;outlineConnect=0;targetShapes=umlLifeline;portConstraint=eastwest;newEdgeStyle={&quot;curved&quot;:0,&quot;rounded&quot;:0};strokeColor=#FFFFFF;fontColor=#FFFFFF;fillColor=#182E3E;labelBackgroundColor=none;" vertex="1" parent="WIyWlLk6GJQsqaUBKTNV-1">
          <mxGeometry x="452" y="277" width="10" height="61" as="geometry" />
        </mxCell>
        <mxCell id="v8HHP5DSAiD64qSdVQnQ-30" value="" style="edgeStyle=orthogonalEdgeStyle;rounded=0;orthogonalLoop=1;jettySize=auto;html=1;curved=0;strokeColor=#23445D;labelBackgroundColor=none;fontColor=default;" edge="1" parent="WIyWlLk6GJQsqaUBKTNV-1">
          <mxGeometry relative="1" as="geometry">
            <mxPoint x="299" y="277" as="sourcePoint" />
            <mxPoint x="451" y="277" as="targetPoint" />
          </mxGeometry>
        </mxCell>
        <mxCell id="v8HHP5DSAiD64qSdVQnQ-32" value="2:錄入監察結果" style="text;html=1;align=center;verticalAlign=middle;resizable=0;points=[];autosize=1;strokeColor=none;fillColor=none;fontColor=#FFFFFF;labelBackgroundColor=none;" vertex="1" parent="WIyWlLk6GJQsqaUBKTNV-1">
          <mxGeometry x="326" y="251" width="100" height="26" as="geometry" />
        </mxCell>
        <mxCell id="v8HHP5DSAiD64qSdVQnQ-33" value="" style="html=1;points=[[0,0,0,0,5],[0,1,0,0,-5],[1,0,0,0,5],[1,1,0,0,-5]];perimeter=orthogonalPerimeter;outlineConnect=0;targetShapes=umlLifeline;portConstraint=eastwest;newEdgeStyle={&quot;curved&quot;:0,&quot;rounded&quot;:0};strokeColor=#FFFFFF;fontColor=#FFFFFF;fillColor=#182E3E;labelBackgroundColor=none;" vertex="1" parent="WIyWlLk6GJQsqaUBKTNV-1">
          <mxGeometry x="615" y="306" width="10" height="32" as="geometry" />
        </mxCell>
        <mxCell id="v8HHP5DSAiD64qSdVQnQ-37" value="" style="edgeStyle=orthogonalEdgeStyle;rounded=0;orthogonalLoop=1;jettySize=auto;html=1;curved=0;strokeColor=#23445D;labelBackgroundColor=none;fontColor=default;" edge="1" parent="WIyWlLk6GJQsqaUBKTNV-1">
          <mxGeometry relative="1" as="geometry">
            <mxPoint x="463" y="306" as="sourcePoint" />
            <mxPoint x="615" y="306" as="targetPoint" />
          </mxGeometry>
        </mxCell>
        <mxCell id="v8HHP5DSAiD64qSdVQnQ-39" value="3:生成監察檔案" style="text;html=1;align=center;verticalAlign=middle;resizable=0;points=[];autosize=1;strokeColor=none;fillColor=none;fontColor=#FFFFFF;labelBackgroundColor=none;" vertex="1" parent="WIyWlLk6GJQsqaUBKTNV-1">
          <mxGeometry x="488" y="280" width="100" height="26" as="geometry" />
        </mxCell>
        <mxCell id="v8HHP5DSAiD64qSdVQnQ-43" value="" style="edgeStyle=orthogonalEdgeStyle;rounded=0;orthogonalLoop=1;jettySize=auto;html=1;curved=0;strokeColor=#23445D;dashed=1;labelBackgroundColor=none;fontColor=default;" edge="1" parent="WIyWlLk6GJQsqaUBKTNV-1">
          <mxGeometry relative="1" as="geometry">
            <mxPoint x="614.9999999999999" y="346" as="sourcePoint" />
            <mxPoint x="299" y="346" as="targetPoint" />
          </mxGeometry>
        </mxCell>
        <mxCell id="v8HHP5DSAiD64qSdVQnQ-40" value="" style="html=1;points=[[0,0,0,0,5],[0,1,0,0,-5],[1,0,0,0,5],[1,1,0,0,-5]];perimeter=orthogonalPerimeter;outlineConnect=0;targetShapes=umlLifeline;portConstraint=eastwest;newEdgeStyle={&quot;curved&quot;:0,&quot;rounded&quot;:0};strokeColor=#FFFFFF;fontColor=#FFFFFF;fillColor=#182E3E;labelBackgroundColor=none;" vertex="1" parent="WIyWlLk6GJQsqaUBKTNV-1">
          <mxGeometry x="615" y="346" width="10" height="32" as="geometry" />
        </mxCell>
        <mxCell id="v8HHP5DSAiD64qSdVQnQ-42" value="" style="html=1;points=[[0,0,0,0,5],[0,1,0,0,-5],[1,0,0,0,5],[1,1,0,0,-5]];perimeter=orthogonalPerimeter;outlineConnect=0;targetShapes=umlLifeline;portConstraint=eastwest;newEdgeStyle={&quot;curved&quot;:0,&quot;rounded&quot;:0};strokeColor=#FFFFFF;fontColor=#FFFFFF;fillColor=#182E3E;labelBackgroundColor=none;" vertex="1" parent="WIyWlLk6GJQsqaUBKTNV-1">
          <mxGeometry x="289" y="346" width="10" height="32" as="geometry" />
        </mxCell>
        <mxCell id="v8HHP5DSAiD64qSdVQnQ-51" value="" style="edgeStyle=orthogonalEdgeStyle;rounded=0;orthogonalLoop=1;jettySize=auto;html=1;curved=0;strokeColor=#23445D;labelBackgroundColor=none;fontColor=default;" edge="1" parent="WIyWlLk6GJQsqaUBKTNV-1">
          <mxGeometry relative="1" as="geometry">
            <mxPoint x="289" y="385" as="sourcePoint" />
            <mxPoint x="163" y="385" as="targetPoint" />
          </mxGeometry>
        </mxCell>
        <mxCell id="v8HHP5DSAiD64qSdVQnQ-49" value="" style="html=1;points=[[0,0,0,0,5],[0,1,0,0,-5],[1,0,0,0,5],[1,1,0,0,-5]];perimeter=orthogonalPerimeter;outlineConnect=0;targetShapes=umlLifeline;portConstraint=eastwest;newEdgeStyle={&quot;curved&quot;:0,&quot;rounded&quot;:0};strokeColor=#FFFFFF;fontColor=#FFFFFF;fillColor=#182E3E;labelBackgroundColor=none;" vertex="1" parent="WIyWlLk6GJQsqaUBKTNV-1">
          <mxGeometry x="289" y="385" width="10" height="32" as="geometry" />
        </mxCell>
        <mxCell id="v8HHP5DSAiD64qSdVQnQ-50" value="" style="html=1;points=[[0,0,0,0,5],[0,1,0,0,-5],[1,0,0,0,5],[1,1,0,0,-5]];perimeter=orthogonalPerimeter;outlineConnect=0;targetShapes=umlLifeline;portConstraint=eastwest;newEdgeStyle={&quot;curved&quot;:0,&quot;rounded&quot;:0};strokeColor=#FFFFFF;fontColor=#FFFFFF;fillColor=#182E3E;labelBackgroundColor=none;" vertex="1" parent="WIyWlLk6GJQsqaUBKTNV-1">
          <mxGeometry x="153" y="385" width="10" height="32" as="geometry" />
        </mxCell>
        <mxCell id="v8HHP5DSAiD64qSdVQnQ-52" value="5:退出" style="text;html=1;align=center;verticalAlign=middle;resizable=0;points=[];autosize=1;strokeColor=none;fillColor=none;fontColor=#FFFFFF;labelBackgroundColor=none;" vertex="1" parent="WIyWlLk6GJQsqaUBKTNV-1">
          <mxGeometry x="200" y="359" width="52" height="26" as="geometry" />
        </mxCell>
        <mxCell id="v8HHP5DSAiD64qSdVQnQ-53" value="4:監察結果顯示" style="text;html=1;align=center;verticalAlign=middle;resizable=0;points=[];autosize=1;strokeColor=none;fillColor=none;fontColor=#FFFFFF;labelBackgroundColor=none;" vertex="1" parent="WIyWlLk6GJQsqaUBKTNV-1">
          <mxGeometry x="407" y="320" width="100" height="26" as="geometry" />
        </mxCell>
        <mxCell id="v8HHP5DSAiD64qSdVQnQ-85" value="" style="shape=table;startSize=0;container=1;collapsible=0;childLayout=tableLayout;fontSize=16;strokeColor=#FFFFFF;fontColor=#FFFFFF;fillColor=#182E3E;gradientColor=default;swimlaneFillColor=none;gradientDirection=south;rounded=1;" vertex="1" parent="WIyWlLk6GJQsqaUBKTNV-1">
          <mxGeometry x="128" y="66" width="538" height="29" as="geometry" />
        </mxCell>
        <mxCell id="v8HHP5DSAiD64qSdVQnQ-98" style="shape=tableRow;horizontal=0;startSize=0;swimlaneHead=0;swimlaneBody=0;strokeColor=inherit;top=0;left=0;bottom=0;right=0;collapsible=0;dropTarget=0;fillColor=none;points=[[0,0.5],[1,0.5]];portConstraint=eastwest;fontSize=16;fontColor=#FFFFFF;" vertex="1" parent="v8HHP5DSAiD64qSdVQnQ-85">
          <mxGeometry width="538" height="29" as="geometry" />
        </mxCell>
        <mxCell id="v8HHP5DSAiD64qSdVQnQ-102" value="&lt;font style=&quot;font-size: 12px;&quot;&gt;:店舖管理員&lt;/font&gt;" style="shape=partialRectangle;html=1;whiteSpace=wrap;connectable=0;strokeColor=inherit;overflow=hidden;fillColor=none;top=0;left=0;bottom=0;right=0;pointerEvents=1;fontSize=16;fontColor=#FFFFFF;" vertex="1" parent="v8HHP5DSAiD64qSdVQnQ-98">
          <mxGeometry width="134" height="29" as="geometry">
            <mxRectangle width="134" height="29" as="alternateBounds" />
          </mxGeometry>
        </mxCell>
        <mxCell id="v8HHP5DSAiD64qSdVQnQ-99" value="&lt;font style=&quot;font-size: 12px;&quot;&gt;店舖管理&lt;/font&gt;" style="shape=partialRectangle;html=1;whiteSpace=wrap;connectable=0;strokeColor=inherit;overflow=hidden;fillColor=none;top=0;left=0;bottom=0;right=0;pointerEvents=1;fontSize=16;fontColor=#FFFFFF;" vertex="1" parent="v8HHP5DSAiD64qSdVQnQ-98">
          <mxGeometry x="134" width="135" height="29" as="geometry">
            <mxRectangle width="135" height="29" as="alternateBounds" />
          </mxGeometry>
        </mxCell>
        <mxCell id="v8HHP5DSAiD64qSdVQnQ-100" value="&lt;font style=&quot;font-size: 12px;&quot;&gt;監察控制&lt;/font&gt;" style="shape=partialRectangle;html=1;whiteSpace=wrap;connectable=0;strokeColor=inherit;overflow=hidden;fillColor=none;top=0;left=0;bottom=0;right=0;pointerEvents=1;fontSize=16;fontColor=#FFFFFF;" vertex="1" parent="v8HHP5DSAiD64qSdVQnQ-98">
          <mxGeometry x="269" width="135" height="29" as="geometry">
            <mxRectangle width="135" height="29" as="alternateBounds" />
          </mxGeometry>
        </mxCell>
        <mxCell id="v8HHP5DSAiD64qSdVQnQ-101" value="&lt;font style=&quot;font-size: 12px;&quot;&gt;監察檔案&lt;/font&gt;" style="shape=partialRectangle;html=1;whiteSpace=wrap;connectable=0;strokeColor=inherit;overflow=hidden;fillColor=none;top=0;left=0;bottom=0;right=0;pointerEvents=1;fontSize=16;fontColor=#FFFFFF;shadow=1;" vertex="1" parent="v8HHP5DSAiD64qSdVQnQ-98">
          <mxGeometry x="404" width="134" height="29" as="geometry">
            <mxRectangle width="134" height="29" as="alternateBounds" />
          </mxGeometry>
        </mxCell>
      </root>
    </mxGraphModel>
  </diagram>
</mxfile>
